<svg xmlns="http://www.w3.org/2000/svg" viewBox="0 0 31 31.085" width="31" height="31.085"><path fill="#fff" stroke="rgba(0,0,0,0)" stroke-miterlimit="10" d="M13.156 30.5a14.86 14.86 0 01-3.831-1.15c-.4-.182-.792-.382-1.172-.6s-.752-.448-1.11-.694-.708-.51-1.043-.786-.66-.57-.97-.87-.609-.624-.891-.953-.554-.675-.807-1.028-.5-.723-.718-1.1-.433-.767-.623-1.161a14.937 14.937 0 01-1.238-3.81c-.077-.442-.153-.905-.19-1.36S.5 16.057.5 15.592a15.423 15.423 0 01.077-1.543c.051-.5.127-1.006.227-1.5s.223-.973.37-1.446.314-.935.5-1.387.4-.891.632-1.319.482-.843.751-1.244.558-.79.864-1.162.63-.731.968-1.072.7-.668 1.065-.974.758-.6 1.155-.869.815-.525 1.237-.756.866-.446 1.311-.636a14.634 14.634 0 012.816-.879 14.953 14.953 0 011.493-.227 15.133 15.133 0 013.067 0 14.952 14.952 0 011.489.229 14.708 14.708 0 014.127 1.515 15.081 15.081 0 014.425 3.671c.304.372.6.763.864 1.162s.522.82.751 1.244.443.872.632 1.319.36.918.5 1.387.271.96.37 1.446.177 1 .227 1.5a15.419 15.419 0 01.082 1.541c0 .466-.021.935-.063 1.4s-.1.913-.186 1.361-.183.886-.3 1.319-.259.856-.416 1.272a15.14 15.14 0 01-5.574 7.119 15.274 15.274 0 01-2.282 1.294 14.513 14.513 0 01-2.507.879c-.43.108-.88.2-1.324.271V19.954h3.5l.665-4.362h-4.16v-2.831a3.02 3.02 0 01.12-.872 2.058 2.058 0 01.4-.754 1.849 1.849 0 01.329-.3 2.055 2.055 0 01.424-.231 2.632 2.632 0 01.528-.148 3.716 3.716 0 01.64-.052h1.886V6.69s-.44-.075-1.063-.147a21.808 21.808 0 00-1.077-.1 17.179 17.179 0 00-1.217-.046 6.729 6.729 0 00-2.331.386 4.861 4.861 0 00-1.792 1.13 5 5 0 00-1.14 1.841 6.529 6.529 0 00-.3 1.175 8.4 8.4 0 00-.1 1.338v3.325H9.348v4.362h3.809V30.5z"/></svg>