<svg xmlns="http://www.w3.org/2000/svg" viewBox="0 0 30 30" width="30" height="30"><g transform="translate(-1666.001 -516.001)"><path d="M1681.001 518.704c4.005 0 4.48.015 6.061.087a8.3 8.3 0 012.785.516 4.968 4.968 0 012.847 2.847 8.3 8.3 0 01.516 2.785c.072 1.582.087 2.056.087 6.061s-.015 4.48-.087 6.061a8.3 8.3 0 01-.516 2.785 4.968 4.968 0 01-2.847 2.847 8.3 8.3 0 01-2.785.516c-1.581.072-2.056.087-6.061.087s-4.48-.015-6.061-.087a8.3 8.3 0 01-2.785-.516 4.968 4.968 0 01-2.847-2.847 8.3 8.3 0 01-.516-2.785c-.072-1.582-.087-2.056-.087-6.061s.015-4.48.087-6.061a8.3 8.3 0 01.516-2.785 4.968 4.968 0 012.847-2.847 8.3 8.3 0 012.785-.516c1.582-.072 2.056-.087 6.061-.087m0-2.7c-4.074 0-4.585.017-6.184.09a11.01 11.01 0 00-3.641.7 7.67 7.67 0 00-4.387 4.381 11.01 11.01 0 00-.7 3.641c-.073 1.6-.09 2.111-.09 6.184s.017 4.585.09 6.184a11.01 11.01 0 00.7 3.641 7.67 7.67 0 004.387 4.387 11.01 11.01 0 003.641.7c1.6.073 2.111.09 6.184.09s4.585-.017 6.184-.09a11.01 11.01 0 003.641-.7 7.67 7.67 0 004.387-4.39 11.01 11.01 0 00.7-3.641c.073-1.6.09-2.111.09-6.184s-.017-4.585-.09-6.184a11.01 11.01 0 00-.7-3.641 7.67 7.67 0 00-4.391-4.383 11.01 11.01 0 00-3.641-.7c-1.6-.073-2.111-.09-6.184-.09z"/><path d="M1681.001 523.298a7.7 7.7 0 107.7 7.7 7.7 7.7 0 00-7.7-7.7zm0 12.7a5 5 0 115-5 5 5 0 01-5 5.003z"/><circle cx="1.8" cy="1.8" r="1.8" transform="translate(1687.208 521.193)"/></g></svg>