<svg xmlns="http://www.w3.org/2000/svg" viewBox="0 0 301 80" width="301" height="80"><path d="M148.9 78.9v-.2c4.5-.2 9-.4 13.5-.5.8-.1 1.5-.4 1.5-1.3 0-.7-.3-1.5-1.8-3.7l-1.6-2.5h-19.8l-1.6 2.5c-.5.7-1.6 2.5-1.6 3.7 0 .9.6 1.7 2.6 1.7.7 0 1.2.2 1.2.5s-.4.5-1.1.5c-2.3 0-4.5-.1-6.7-.1-1.9 0-3.8.1-5.7.1h-1.5c-3.1 0-5.9-.1-8.9-.1H115c-17.5.7-35.5.7-52.8.3-18.3-.3-44.2-.5-62.2-.9v-.2c19.6-.4 43.1-.6 64.2-.8 1.8-.9 3.5-2.9 4.4-6l5.3-16.7c.2-.6.3-1.2.3-1.9.1-1-.5-2-1.4-2.6-15.2-.2-30.4-.5-45.5-.9 7.9-.2 15.8-.4 23.8-.5 3-.4 4.8-1.9 8.1-6.7l13.6-19.9c-.6-1-4-2-6.1-2.5-16.7-.2-33.3-.4-49.8-.6 85.8-1.3 173-1.3 258.8-.2l8.3.2-8.3.2-51.8.6c1 .5 1.8 1.3 2.4 2.3l13.1 19.7c1.7 2.6 5.1 7 7.9 7h.3c7.6.1 15.1.3 22.7.5-15.6.4-31.3.7-47 .9-2.9 1.4-5.6 3.1-8 5.3l-7.7 6.8 8 7.7c2.9 2.8 6.5 6.1 9.6 7.4 18.9.4 57.6.1 75.9 1-27.5.4-67.7.7-95.1 1h-10.1c-15.7 0-31.5-.3-47-1.1zm-35.1-26c0 .5.1.9.3 1.4l5.9 17.6c1.4 4.1 3.2 6.4 6.8 6.6 3.1-.2 4.7-1.6 8.1-6.4l13.6-19.9c-.2-.3-.5-.6-.8-.8-11.1 0-22.2 0-33.2-.1-.5.4-.7 1-.7 1.6zm-20 24.8c5.3.1 10.6.2 15.9.4 1.2-.2 2-1.2 1.9-2.4 0-.6-.1-1.3-.3-1.9l-5.4-16-12.1 19.9zM157 51.3c.2.2.4.5.5.8l13.1 19.7c1.3 1.9 3.3 4.8 5.5 6.1 1.7 0 3.4-.1 5.1-.1 3.1-1.4 5.9-3.2 8.4-5.3l8.8-7.5-7.9-7.9c-2.2-2.3-4.7-4.2-7.4-5.8H157zM73 73.1c-.2.6-.3 1.3-.3 1.9-.1 1.1.5 2.1 1.4 2.7l3.5-.1c4.1 0 8.3-.1 12.4 0L77.9 58.2 73 73.1zm137.4 4.6c.1-.1.1-.3.1-.4 0-.7-.8-1.8-2.1-3.2l-7.6-6.8-8.2 7c-1.3 1.1-2.5 2.4-2.5 3.2v.2h20.3zM83.6 51l10.9 17.5 10.4-17.3c-7.1-.1-14.2-.1-21.3-.2 0-.1 0 0 0 0zm59.1 16.6h15.7l-7.8-11.9-7.9 11.9zm53.9-16.5v.2c0 .8.7 1.8 1.9 3l6.6 6.2 7.1-6.3c1.3-1 2.3-2.2 2.3-3.1v-.2c-6 .1-12 .1-17.9.2zM63.4 43.7c-.5.7-1.6 2.5-1.6 3.7 0 .9.6 1.6 1.4 1.8 2.1 0 4.3-.1 6.4-.1h.9c5.2-.1 10.4-.2 15.7-.2 1.1-.2 2.1-.7 2.1-1.4s-.3-1.5-1.8-3.7l-1.6-2.5H65.1l-1.7 2.4zm144.3 0c-.5.7-1.6 2.5-1.6 3.7 0 .6.3 1.1.8 1.4l23.5.3c1.1-.1 2.2-.4 2.2-1.6 0-.7-.3-1.5-1.8-3.7l-1.6-2.5h-19.8l-1.7 2.4zm-14.4-2.5l-1.5 5c-.2.8-.5 1.6-.9 2.3 2.3 0 4.7 0 7 .1 1.8-.8 3.3-2.6 5.6-6l13.6-19.9c-.6-1.1-3.7-2-5.6-2.3-6.6 0-13.2.1-19.8.1l-.9 6.6c-.1 1-.9 1-1 0-.8-4.6-2.9-4.6-7.8-4.6h-9.4c-2.8 0-3.7.7-3.7 3.3V32c0 .6.2.8.8.8h9.1c3.1 0 4.7-1.9 4.8-3.7 0-.7.3-1 .5-1s.5.3.5 1c0 1.3-.1 3.6-.1 5.1 0 1.5.1 3.7.1 5.1 0 .8-.2 1-.5 1s-.5-.2-.5-1c0-1.8-1.6-3.6-4.8-3.6h-9.1c-.7 0-.8.2-.8.8v5.3c0 4.5 1.2 5.5 6.4 5.5h4.7c7.2 0 10.3-2.3 12.2-6.3.1-.3.4-.5.7-.5.2-.1.5.2.4.7zM82 22.7l13.1 19.7c1.4 2.1 3.6 5.1 5.9 6.3 2.6 0 5.1 0 7.7-.1 1.5-.6 2.7-1.9 2.7-5.4V26.5c0-4.3-2.2-5.6-4.5-5.9-9.1 0-18.1-.1-27.2-.2.9.5 1.7 1.3 2.3 2.3zm37.8 15.4v5c0 3.2 1 4.7 2.4 5.3 4.9 0 9.9 0 14.8-.1-2.4-1.6-5-4.5-8.9-9.7-.9-1-2.2-1.5-3.6-1.4h-4.1c-.5.1-.6.3-.6.9zm25.5-9.8c0 5.3-4.2 7.5-9 8.4 1.2.5 2.1 1.5 3.3 3 3.5 4.6 6.2 7.5 9.2 8.7h9.9c.5-.2.9-.6 1.2-1 .3-.8.5-1.7.4-2.5v-20c.1-.9-.1-1.8-.4-2.6-.7-.9-1.7-1.5-2.9-1.7h-18.7c3.9 1.1 7 3.3 7 7.7zm66.1 9.9h15.7l-7.8-11.9-7.9 11.9zm-144.3 0h15.7L75 26.3l-7.9 11.9zm52.7-11.7v7.7c0 .5.2.7.8.7h7.5c4.4 0 7.9-2.1 7.9-6.6 0-5.2-3.6-6.3-7.9-6.3h-3.6c-4.5 0-4.7 0-4.7 4.5zm27.5-9.3c-.3 0-.6-.2-.6-.5v-2.1c0-.3.2-.6.5-.6h1.3c.3 0 .6.2.6.5v2.1c0 .3-.2.6-.5.6h-1.3zm-.2-2.6v1.9c0 .2.1.3.3.3h1c.2 0 .3-.1.3-.3v-1.9c0-.2-.1-.3-.3-.3h-1c-.3.1-.3.1-.3.3zm18.5 2.6c-.3 0-.6-.2-.6-.5v-.6h.4v.4c0 .2.1.2.2.2h.9c.2 0 .3-.1.3-.2v-.4c0-.2-.1-.3-.3-.3l-.9-.2c-.4-.1-.7-.2-.7-.7v-.4c0-.3.2-.6.5-.6h1.1c.3 0 .6.2.6.5v.5h-.4v-.3c0-.2-.1-.2-.2-.2h-.8c-.2 0-.3.1-.3.2v.3c0 .2.1.3.3.3l.9.2c.4.1.7.2.7.7v.4c0 .3-.2.6-.5.6h-.2l-1 .1zm-2.7 0c-.3 0-.6-.2-.6-.5v-2.1c0-.3.2-.6.5-.6h1.2c.3 0 .6.2.6.5v.5h-.4v-.3c0-.2-.1-.3-.2-.3h-.9c-.2 0-.3.1-.3.3v1.9c0 .2.1.3.3.3h.9c.2 0 .2-.1.2-.3V16h-.8v-.4h1.2v1c0 .3-.2.6-.5.6h-1.2zm-1.8 0l-1.5-2.6v2.2h.5v.4h-1.3v-.4h.4v-2.5h-.4V14h.9l1.5 2.5v-2.1h-.5V14h1.3v.4h-.4v2.8h-.5zm-4.2 0v-.4h.5v-2.5h-.5V14h1.4v.4h-.5v2.5h.5v.4h-1.4zm-1 0l-1-1.6-.6.7v.5h.5v.4h-1.4v-.4h.4v-2.5h-.4V14h1.3v.4h-.5v1.4l1.2-1.4h-.3V14h1.2v.4h-.4l-.8.9.9 1.5h.4v.4h-.5zm-6.5 0v-.4h.4v-2.5h-.4V14h2.5v.9h-.4v-.5h-1.2v1h1.3v.4h-1.3v1h.5v.4h-1.4zm-6.3 0c-.3 0-.6-.2-.6-.5v-2.1c0-.3.2-.6.5-.6h1.2c.3 0 .6.2.6.5v.5h-.4v-.3c0-.2-.1-.3-.2-.3h-.9c-.2 0-.3.1-.3.3v1.9c0 .2.1.3.3.3h.9c.2 0 .2-.1.2-.3V16h-.8v-.4h1.2v1c0 .3-.2.6-.5.6h-1.2zm-1.9 0l-1.5-2.6v2.2h.5v.4h-1.3v-.4h.4v-2.5h-.4V14h.9l1.5 2.5v-2.1h-.5V14h1.3v.4h-.4v2.8h-.5zm-4.1 0v-.4h.5v-2.5h-.5V14h1.4v.4h-.5v2.5h.5v.4h-1.4zm-1 0l-1-1.6-.6.7v.5h.5v.4h-1.4v-.4h.4v-2.5h-.4V14h1.3v.4h-.5v1.4l1.2-1.4h-.3V14h1.2v.4h-.4l-.8.9.9 1.5h.4v.4h-.5zm9.7-5.2c-.1-.1-.1-.3 0-.4v-.9c-.1-.1-.1-.2 0-.3-.1-.8-2.8-2.9-2-4.9.7-1.8 2.7-1.3 3.2-1.2.9-.7 2.1-.8 3.1-.3 0-.2.1-.3.2-.4v-.1c-.4-.1-.4-.6-.4-.6h-.1.1v-.1h-.1c-.1 0-.1-.1 0-.1h.1c0-.2.2-.3.3-.4v-.2h-.5c.1-.2.2-.5.3-.7 0-.1-.7.3-.7.3V.5s.7.3.7.2c-.1-.2-.2-.5-.4-.7h1.5c-.2.2-.3.4-.4.7 0 .2.7-.2.7-.2v1.2s-.7-.4-.7-.3c.1.2.2.5.3.7h-.5v.2c.2.1.3.2.3.4h.1c.1 0 .1.1 0 .1h-.1v.1h.1-.1s0 .5-.4.6v.2c.1.1.2.2.2.4 1-.5 2.2-.4 3.1.3.5-.1 2.5-.5 3.2 1.2.8 2-1.9 4.1-2 4.9.1.1.1.2 0 .3v.9c.1.1.1.3 0 .4-2.8.3-6 .3-9.1-.1zm5.2-7.4c.2.8.3 1.7.3 2.6-.1 1.5-.3 3.6-.3 3.6.6 0 1.3 0 1.9-.1.2-1 .5-2 .9-3 .4-.9.3-1.8-.2-2.7-.3-.4-.9-.7-1.4-.7-.4 0-.8.1-1.2.3zm-3.6.4c-.5.8-.5 1.8-.2 2.7.4 1 .7 2 .9 3 .6.1 1.3.1 1.9.1 0 0-.2-2.1-.3-3.6-.1-.9 0-1.7.3-2.6-.4-.2-.8-.3-1.2-.3-.5 0-1 .2-1.4.7zm6.9-.2c.4.5.7 1.1.7 1.7-.1.9-.4 1.8-.9 2.6-.3.5-.4 1-.5 1.6.4 0 .8-.1 1.2-.2.4-1 .9-1.9 1.5-2.7.6-.9.4-2.2-.6-2.8-.1-.1-.2-.1-.3-.2-.2-.1-.5-.1-.7-.1-.1.1-.2.1-.4.1zm-8.8.1c-1 .5-1.5 1.6-1 2.6 0 .1.1.2.2.3.6.8 1.1 1.7 1.5 2.7.4.1.8.1 1.2.2-.1-.5-.3-1.1-.5-1.6-.5-.8-.8-1.7-.9-2.6 0-.6.3-1.2.7-1.7h-.4c-.3 0-.5 0-.8.1z" fill="#fff"/></svg>