<svg xmlns="http://www.w3.org/2000/svg" viewBox="0 0 220 19" width="220" height="19"><style>.st0{fill:#000}</style><path d="M.002.7l2.6.7h2.9v5c1.6.8 3.4 1.4 5.2 1.7 1.8.2 3.6.4 5.4.4V13c-2.3 0-4.6-.3-6.8-.8-1.3-.3-2.5-.7-3.7-1.2v7.5h-5.5L.002.7zm52.8 17.9h5.5v-7.5c1.2.5 2.5.9 3.7 1.2 2.2.5 4.5.8 6.8.8V8.5c-1.8 0-3.6-.2-5.4-.4-1.8-.3-3.5-.9-5.2-1.7v-5h-2.9l-2.6-.7.1 17.9zm-35.1-13.9h15.7V1.2h-13.3l-2.4-.5v4zm-.5 5h11.9v1.9s-.3 1.3-2.2 2.1c-2 .9-5.9.6-5.9.6l-2.5-.8v5.1c3.2.4 6.5.1 9.6-.7 3-.8 5.3-3.4 5.6-6.5V5.5h-16.5v4.2zm18.2 1.6h4V7.2h8.3v2.1c0 1.6-.8 3.1-2 4.1-1.6 1.3-5.2 1.1-5.2 1.1l-2.7-.9v5.2c2.9.5 5.9.2 8.7-.9 3.1-1.2 5.2-4 5.3-7.3V3.1h-6V1.2h-4.3v1.9h-3.1l-3-.7v8.9zm34.3-4h5.9l.6 4.3h-5.4l-1.4-.6v4.8h7.2l.6 2.6h4.4l-.6-2.6h5.1v-4.3h-5.7l-.7-4h6.1V3h-6.6V1.1h-4.2l.2 2h-3.6l-1.9-.8v5zm17.2-1.2s.9.1 2.7.1c2 .3 4 .8 5.9 1.5V3.2c-1.2-.4-2.5-.8-3.8-1.1-1.6-.3-3.1-.4-4.7-.5l-.1 4.5z" class="st0"/><path d="M98.802 9.3c0 3-3.2 4.4-4.7 4.7-1.7.3-3.5.4-5.3.3l-2.1-1v5.2s6.8-.2 7.9-.3c1.9-.4 3.7-1.2 5.3-2.4 2.4-1.7 3.2-5.6 3.2-6.3V2.1h-4c0 .1-.3 4.2-.3 7.2m11.5-2.8h5.9v3c0 2.1-1.2 3.5-3.3 4.4s-5.6.6-5.6.6l-2.5-1.1v5.4s4.4.1 5.3.1c2.4-.1 4.7-.9 6.8-2.2 2.2-1.4 3.5-3.8 3.5-6.4V2.2h-13.4c-.1 1-.3 2-.6 2.9-.4 1.2-2.5 1.9-2.5 1.9v4.4c5.4-1.1 6.4-5 6.4-4.9m7-4.7h2.5V0h-2.6l.1 1.8zm3.1 0h2.6V0h-2.6v1.8zm10.2.4c-1.5-.5-3-.8-4.6-1.1v3.3c1.6.3 3.1.7 4.6 1.3V2.2z" class="st0"/><path d="M134.502 15.9c-.8 0-1.6-.1-2.3-.5h3.1l1.2-1.3h2.1l1 1.3h3.7l-1.4-1.3h1.6v-2.2h-2.1v-.7h1.6V9h-1.6v-.8h1.1c.5 0 1-.2 1.3-.6V5.3c-.8.7-.9.7-1.4.7h-1.9v-.6h1.3c1.3 0 1.8-.4 1.8-1.6V1h-5.8v2.1h3v.6h-3v2.8c0 .9.1 1 .8 1.5v.9h-2.1v-1c.3-.1.6-.3.8-.5V5.2c-.5.5-1.1.7-1.8.7h-1.5v-.6h1.1c1.6 0 2-.5 2-1.9V1h-5.7v2.1h3.2v.6h-3.3v2.8c.1 1.3.4 1.5 2.2 1.5v.9h-1.6v2.2h1.6v.7h-2.2V14h1.8l-1.2 1c-.5-.3-.9-.7-1.2-1.2V7.3h-4.9v3.1h1.7v3.1c-.1.9-.8 1.6-1.6 1.9v3.5c1.5-.2 2.9-1.1 3.7-2.4 1.7 1.8 2.6 2.2 5.8 2.1h8.8v-2.8h-9.7zm1.9-4.7h2.1v.7h-2.1v-.7zm8.1-.4v3h7.3v1.9h-3.3v3.1h3.5c2.7 0 3.4-.6 3.4-2.7v-2.3h7v-3h-7V9h6.5V6.1h-6.5V4.3c2.4-.1 3.7-.2 6-.4V.8c-4.3.6-8.6.8-12.9.7h-3.5v3h1.8l3-.1h1.9v1.7h-6.4V9h6.4v1.8h-7.2zm21-3.3c-.4 1.6-1.1 3-2.2 4.3v4.6c1-.8 1.7-1.9 2.3-3V19h2.9v-7.2c.9 1 1 1.2 2 2.2v-3.9c-.8-.9-1-1-2-2v-.6h1.9V4.7h-1.9V1.2h-3v3.5h-2.2v2.8h2.2zm16.1 2.7V8.1h-2l.4-.7h1.6V5h-4l.3-.7h3.1V1.8h-5.5l.4-.9h-2.9c-.3 1-.9 1.8-1.7 2.4V5h-.7v2.3h2.1c-.5.7-1.2 1.2-1.9 1.6v3.5c.5-.2.9-.6 1.2-1v7.3h9.6v-2.4h-2.5v-.8h2.1v-2h-2.1v-.7h2.1v-2h-2.1v-.7h2.5zm-7.3-5.2h-.8l.6-.7h.6l-.4.7zm1.9 11.4h-1.3v-.8h1.3v.8zm0-2.9h-1.3v-.7h1.3v.7zm0-2.6h-1.3v-.7h1.3v.7zm.2-2.8h-.9l.5-.7h.7l-.3.7zm13.1 0c-.8 3.5-3.4 6.2-6.9 7v3.5c4.2-.6 6.8-2.5 9-6.4 1.8 3.5 4.7 5.6 9 6.4v-3.7c-3.4-.7-6.1-3.4-6.8-6.8h6.5v-3h-6.8V.8h-3.6v4.3h-6.9V8l6.5.1zm12.9 10.7c8.3-.1 10.4-.3 13.1-1.1l.5 1h3.6c-.9-1.6-1.8-3.2-2.8-4.7h-3.4l.7 1.2c-1.8.4-3.7.6-5.6.6l1.4-2.6h9.5v-2.9h-16.9v2.9h3.6l-1.3 2.6h-2.3l-.1 3zm13.9-15.1c-1.4-.6-2.5-1.5-3.4-2.7h-3.5c-2.1 2.2-4.7 3.7-7.6 4.5v3c1-.2 2-.5 2.9-.8V9h12.4V7.6c1 .4 1.9.8 2.9 1V5.1c-1.3-.3-2.5-.8-3.7-1.4m-8.5 2.4c1.1-.7 2.2-1.5 3.2-2.4 1 .9 2 1.7 3.1 2.4h-6.3z" class="st0"/></svg>