<svg xmlns="http://www.w3.org/2000/svg" viewBox="0 0 1400 290" width="1400" height="290"><path d="M1371.325 9c-8.817-4.22-18.807-9-38-9s-29.188 4.783-38 9c-7.8 3.733-14.532 6.955-28.675 6.955s-20.886-3.219-28.683-6.955c-8.815-4.22-18.805-9-38-9s-29.187 4.783-38 9c-7.8 3.733-14.532 6.955-28.674 6.955s-20.872-3.219-28.668-6.955c-8.815-4.22-18.806-9-38-9s-29.185 4.783-38 9c-7.8 3.733-14.53 6.955-28.67 6.955S979.085 12.736 971.289 9c-8.813-4.22-18.8-9-38-9s-29.181 4.783-38 9c-7.8 3.733-14.528 6.955-28.67 6.955S845.749 12.736 837.953 9c-8.813-4.22-18.8-9-38-9s-29.185 4.783-38 9c-7.8 3.733-14.53 6.955-28.67 6.955S712.413 12.736 704.615 9c-8.813-4.22-18.8-9-38-9s-29.183 4.783-38 9c-7.8 3.733-14.53 6.955-28.669 6.955S579.082 12.736 571.286 9c-8.813-4.22-18.8-9-37.994-9s-29.183 4.783-38 9c-7.8 3.733-14.528 6.955-28.668 6.955S445.755 12.736 437.958 9c-8.815-4.22-18.8-9-38-9s-29.185 4.783-38 9c-7.8 3.733-14.53 6.955-28.672 6.955S312.422 12.736 304.628 9c-8.815-4.22-18.8-9-38-9s-29.181 4.783-37.994 9c-7.794 3.733-14.527 6.955-28.665 6.955S179.1 12.736 171.309 9c-8.813-4.22-18.8-9-37.994-9s-29.179 4.783-37.992 9c-7.795 3.733-14.527 6.955-28.663 6.955S45.789 12.736 37.994 9C29.181 4.783 19.192 0 0 0v290h1400V15.958c-14.143 0-20.877-3.222-28.675-6.955"/></svg>