<svg xmlns="http://www.w3.org/2000/svg" viewBox="0 0 1000 400" width="1000" height="400"><style>.st0{fill:#ededed}</style><path d="M691.5 195.5L672 165.7l-19.7 29.8zm-267.9 12.4c0 8.1 2.6 11.7 6.1 13.3 12.3-.1 24.6-.1 36.9-.1-6-4-12.5-11.2-22.1-24.2-2.9-3.3-6.4-3.6-8.9-3.6h-10.1c-1.6 0-1.9.4-1.9 2v12.6zm0-22.4c0 1.2.4 1.8 1.9 1.8h18.7c10.9 0 19.8-5.2 19.8-16.5 0-13-8.9-15.7-19.8-15.7h-9c-11.1 0-11.6.1-11.6 11.2v19.2zm191.6 42.3v.5c0 1.9 1.6 4.5 4.8 7.5l16.4 15.5 17.8-15.7c3.1-2.6 5.7-5.6 5.7-7.7 0-.2 0-.4-.1-.6-14.8.2-29.7.3-44.6.5zm-53-9.8h11.6c17.9 0 25.8-5.7 30.5-15.9.3-.7.9-1.2 1.7-1.3.8 0 1.5.8 1.1 2.1l-3.8 12.6c-.5 2-1.3 4-2.1 5.9 5.8 0 11.6.1 17.5.2 4.4-2 8.2-6.5 14.1-15l34-49.8c-1.5-2.6-9.2-4.9-13.9-5.7l-49.5.3-2.1 16.5c-.3 2.5-2.3 2.6-2.6 0-2.1-11.6-7.3-11.6-19.4-11.6h-23.5c-7.1 0-9.3 1.6-9.3 8.2V180c0 1.5.4 1.9 2.1 1.9H571c7.8 0 11.8-4.8 11.9-9.2 0-1.8.7-2.6 1.4-2.6s1.2.8 1.2 2.6c0 3.3-.3 8.9-.3 12.7s.3 9.3.3 12.7c0 1.9-.5 2.6-1.2 2.6s-1.4-.5-1.4-2.6c0-4.4-4.1-9-11.9-9h-22.7c-1.8 0-2.1.5-2.1 1.9v13.3c.1 11.1 3.1 13.7 16 13.7zm-97.4-26.2c3 1.2 5.2 3.7 8.2 7.5 8.7 11.5 15.4 18.7 23.1 21.7h24.8c1.2-.5 2.3-1.4 3-2.6.7-1.4 1.1-3.1 1.1-6.3v-49.9c0-3.3-.4-5.1-1.1-6.4-1.3-2.2-4.4-3.6-7.1-4.2h-46.7c9.5 2.7 17.3 8.1 17.3 19.1-.1 13.3-10.6 18.8-22.6 21.1zm178.3 17.5c-1.2 1.8-4.1 6.2-4.1 9.2-.1 1.4.7 2.8 2 3.4 19.6.2 39.2.5 58.8.8 2.6-.2 5.4-1.1 5.4-4.1 0-1.6-.8-3.7-4.5-9.3l-4.1-6.2h-49.4l-4.1 6.2zm-141.8-82.4c1.6 0 3.2-.1 4.7-.3 0-1.3 1.7-5.7 2.3-7.6s1.2-4.6-.4-6.6c-.8-1.1-2.1-1.7-3.5-1.6-1 0-2 .2-3 .6.6 2.1.8 4.3.7 6.4-.2 3.8-.8 9.1-.8 9.1zm9.7-.7c.7-2.6 2.3-4.1 3.7-6.7 1.5-2.3.9-5.4-1.4-6.9-.2-.2-.5-.3-.7-.4-.6-.2-1.2-.3-1.9-.3-.3 0-.6 0-1 .1 1.1 1.2 1.7 2.7 1.7 4.3 0 2.5-1.9 5.5-2.3 6.4-.6 1.2-1.1 2.5-1.3 3.9 1.1 0 2.2-.2 3.2-.4zm-18.4.4c-.2-1.4-.6-2.7-1.3-3.9-.4-.9-2.3-3.9-2.3-6.4 0-1.6.6-3.1 1.7-4.3-.3 0-.6-.1-1-.1-.6 0-1.3.1-1.9.2-2.5 1.1-3.6 4.1-2.5 6.6.1.3.2.5.4.7 1.5 2.6 3.1 4.1 3.7 6.7 1.1.3 2.1.5 3.2.5zm-.9 14.7c0 .5.2.6.6.6h2.4c.5 0 .6-.2.6-.6v-4.7c0-.5-.2-.6-.6-.6h-2.4c-.5 0-.6.2-.6.6v4.7zm.5-22.3c.5 1.9 2.3 6.3 2.3 7.6 1.6.2 3.1.3 4.7.3 0 0-.5-5.3-.7-9.1-.1-2.2.1-4.3.7-6.4-.9-.4-2-.6-3-.6-1.4-.1-2.7.6-3.5 1.6-1.7 2-1.1 4.7-.5 6.6zm-11.6 150h39.3l-19.6-29.8z" class="st0"/><path d="M0 0v400h1000V0H0zm536.4 141.3v-.9h1.1v.9c0 .4.2.6.6.6h2.2c.5 0 .6-.2.6-.6v-1c0-.5-.2-.7-.7-.8l-2.2-.5c-.9-.2-1.6-.5-1.6-1.6v-1c-.1-.8.4-1.5 1.2-1.6h2.7c.8-.1 1.5.4 1.6 1.2v1.2h-1.1v-.8c0-.4-.2-.6-.6-.6h-2.1c-.5 0-.6.2-.6.6v.8c0 .5.2.6.7.7l2.2.5c.9.2 1.6.5 1.6 1.6v1.1c.1.8-.4 1.5-1.2 1.6h-2.9c-.8.1-1.5-.4-1.6-1.2.1.1.1 0 .1-.2zm-5.7-6.4h3c.8-.1 1.5.4 1.6 1.2v1.3h-1.1v-.8c0-.5-.2-.6-.6-.6h-2.4c-.5 0-.6.2-.6.6v4.7c0 .5.2.6.6.6h2.4c.4 0 .6-.2.6-.6v-1.6h-1.9v-1h3v2.6c.1.8-.4 1.5-1.2 1.6h-3c-.8.1-1.5-.4-1.6-1.2v-5.2c-.1-.7.5-1.4 1.2-1.6zm-10 7.1h1.1v-6.1h-1.1v-.9h2.3l3.7 6.2v-5.3h-1.2v-.9h3.3v.9h-1v7.1h-1.1l-3.8-6.4v5.5h1.2v.9h-3.3v-1zm-1.1 0v.9h-3.4v-.9h1.2v-6.1h-1.2v-.9h3.4v.9h-1.2v6.1h1.2zm-36.1-28c1.8-4.4 6.8-3.3 8-3 3.3-3.1 7.6-.7 7.6-.7 0-.4.2-.8.5-.9v-.6c-1-.2-1-1.4-1-1.4h-.2c-.1 0-.1-.1-.1-.1s0-.1.1-.1h.2v-.2h-.2c-.2 0-.2-.3-.1-.3h.3c.1-.5.4-.9.8-1.1v-.4h-1.2c.3-.6.6-1.2.8-1.8 0-.2-1.6.8-1.6.8v-3s1.8.8 1.8.4c-.2-.6-.5-1.1-.9-1.6h3.7c-.4.5-.7 1.1-.9 1.6 0 .4 1.8-.4 1.8-.4v3s-1.6-.9-1.6-.8c.2.6.5 1.2.8 1.8h-1.2v.4c.4.2.7.6.8 1.1h.3c.1 0 .2.3-.1.3h-.2v.2h.2c.1 0 .1.1.1.1s0 .1-.1.1h-.3s0 1.2-1 1.4v.6c.4.1.6.5.5.9 0 0 4.3-2.4 7.6.7 1.2-.3 6.1-1.4 7.9 3 2.1 5-4.6 10.2-5 12.3.2.2.2.5 0 .7v2.1c.2.3.2.7 0 .9-.4.4-8.5.9-11.7.9s-11.3-.4-11.7-.9c-.2-.2-.3-.6 0-.9V127c-.2-.2-.2-.5 0-.7 0-2.1-6.7-7.3-4.7-12.3zm27.7 28v.9h-3.4v-.9h1.1v-6.1h-1.1v-.9h3.4v.9H510v3.6l2.9-3.6h-.8v-.9h3.1v.9h-1l-2 2.3 2.3 3.9h1v.9h-1.6l-2.4-3.9-1.5 1.8v1.2h1.2zm-11.5-6.1v2.5h3.2v1h-3.2v2.6h1.3v.9h-3.5v-.9h1.1v-6.1h-1.1v-.9h6.2v2.2h-1V136h-3zm-8-1h3c.8-.1 1.5.4 1.6 1.2v5.2c.1.8-.4 1.5-1.2 1.6h-3c-.8.1-1.5-.4-1.6-1.2v-5.2c0-.7.5-1.4 1.2-1.6zm-10.5 0h3c.8-.1 1.5.4 1.6 1.2v1.3h-1.1v-.8c0-.5-.2-.6-.6-.6h-2.4c-.5 0-.6.2-.6.6v4.7c0 .5.2.6.6.6h2.4c.4 0 .6-.2.6-.6v-1.6h-1.9v-1h3v2.6c.1.8-.4 1.5-1.2 1.6h-3c-.8.1-1.5-.4-1.6-1.2v-5.2c-.1-.7.4-1.4 1.2-1.6zm-10.1 7.1h1.1v-6.1h-1.1v-.9h2.3l3.7 6.2v-5.3h-1.2v-.9h3.3v.9h-1v7.1h-1.1l-3.8-6.4v5.5h1.2v.9h-3.3v-1zm-4.4 0h1.2v-6.1h-1.2v-.9h3.4v.9h-1.2v6.1h1.2v.9h-3.4v-.9zm-8.5 0h1.1v-6.1h-1.1v-.9h3.4v.9h-1.2v3.6l2.9-3.6h-.8v-.9h3.1v.9h-1l-2 2.3 2.3 3.9h1v.9h-1.6l-2.4-3.9-1.5 1.8v1.2h1.2v.9h-3.4v-1zm180.5 157.9c-8.4.1-16.8.1-25.3.1-39 0-78.4-.8-117.2-2.7v-.6c11.2-.6 22.4-1 33.7-1.4 2-.2 3.7-1 3.7-3.3 0-1.6-.8-3.7-4.5-9.3l-4.1-6.2h-49.4l-4.1 6.2c-1.2 1.8-4.1 6.2-4.1 9.2 0 2.3 1.5 4.2 6.4 4.2 1.8 0 2.9.5 2.9 1.2s-1 1.4-2.7 1.4c-5.7 0-11.3-.3-16.8-.3-4.7 0-9.4.2-14.1.2h-3.4c-7.7 0-14.8-.3-22.2-.3h-6c-43.7 1.8-88.7 1.6-131.9.8-45.5-.5-110.1-1.2-155.1-2v-.6c48.9-.9 107.7-1.4 160.3-2.1 4.6-2.3 8.6-7.3 11.1-15L309 238c.5-1.5.8-3.1.8-4.7.2-2.6-1.2-5.1-3.4-6.4-38-.6-75.9-1.3-113.7-2.2 19.8-.5 39.5-.9 59.3-1.3 7.5-1.1 11.9-4.8 20.2-16.8l34-49.8c-1.5-2.6-9.9-5.1-15.1-6.1-41.6-.4-83.1-.9-124.5-1.6 214.2-3.4 432.1-3.3 646.3-.4l20.9.4-20.9.4c-43 .6-86.2 1-129.4 1.4 2.5 1.4 4.5 3.4 5.9 5.8l32.7 49.2c4.2 6.4 12.7 17.5 19.7 17.5h.7l56.7 1.2c-39 1-78.2 1.7-117.4 2.3-6.9 2.8-14.6 8.5-20.1 13.2l-19.1 17 20.1 19.3c7.4 7 16.3 15.2 24 18.4 47.1.9 143.8.3 189.4 2.6-68.6.9-169.1 1.7-237.4 2.5z" class="st0"/><path d="M493 228.3c-27.7 0-55.3-.1-83-.3-1 1.2-1.5 2.8-1.4 4.4 0 1.2.3 2.3.7 3.4l14.6 43.9c3.4 10.3 8 16.1 16.9 16.5 7.6-.4 11.8-3.9 20.1-16.1l34-49.8c-.4-.8-1.1-1.5-1.9-2zm-104.3 16.3l-30.2 49.7c13.2.1 26.4.4 39.7.9 3-.8 4.8-2.6 4.8-6 0-1.6-.3-3.1-.8-4.6l-13.5-40zm-59.6-87.9l32.7 49.2c3.4 5.2 9 12.8 14.7 15.7 6.4-.1 12.7-.1 19.1-.2 3.8-1.4 6.7-4.8 6.7-13.5v-41.7c0-10.8-5.5-13.9-11.1-14.9-22.6-.1-45.2-.3-67.8-.4 2.3 1.4 4.3 3.4 5.7 5.8zm271.1 85.9c-5-4.9-12-11.1-18.5-14.6l-65.2.3c.5.6.9 1.2 1.3 1.9l32.7 49.2c3.2 4.9 8.4 12 13.7 15.2 4.2-.1 8.5-.1 12.7-.2 7.1-2.8 15.1-8.5 21.1-13.3l21.9-18.7-19.7-19.8zm25.8 25.6l-20.4 17.5c-3.1 2.7-6.2 5.9-6.2 7.9 0 .2 0 .4.1.6h15.6c11.6 0 23.1.1 34.6.2.2-.3.3-.7.3-1.1 0-1.8-1.9-4.5-5.2-7.9L626 268.2zM311.6 165.7l-19.7 29.8h39.3zm21.6 61.9l27.2 43.6 25.9-43.4c-17.8-.2-35.6-.3-53.3-.6.1.2.1.3.2.4zm-26.5 55.2c-.5 1.5-.8 3.2-.8 4.8-.1 2.7 1.2 5.3 3.6 6.7 2.9 0 5.9-.1 8.8-.1 10.3-.1 20.6-.1 31-.1L319 245.5l-12.3 37.3zm38.2-64.2c0-1.6-.8-3.7-4.5-9.3l-4.1-6.2h-49.4l-4.1 6.2c-1.2 1.8-4.1 6.2-4.1 9.2-.1 2.2 1.4 4 3.6 4.4l16-.3h2.3c13-.2 26.1-.4 39.1-.5 2.7-.7 5.2-1.7 5.2-3.5z" class="st0"/></svg>